<svg width="168" height="57" viewBox="0 0 168 57" fill="none" xmlns="http://www.w3.org/2000/svg">
<path d="M55.1201 0.621384C64.2668 -0.0786976 71.2548 -0.218037 88.4541 0.361618C105.63 0.940498 132.257 2.20135 145.638 3.05107C152.295 3.47384 155.77 3.7964 157.609 4.11259C158.47 4.26069 159.257 4.44809 159.854 4.81181C160.215 5.03225 160.548 5.33861 160.785 5.7581C160.89 5.9426 160.959 6.12528 161.004 6.26787L161.075 6.53838L161.216 7.21904C161.353 7.93872 161.481 8.78148 161.633 9.78349C161.838 11.1439 162.096 12.8713 162.485 15.1634C163.026 18.347 163.956 23.2725 164.95 30.0921C165.944 36.9095 166.973 45.3805 167.477 49.8226C167.597 50.8851 167.71 51.8878 167.696 52.7044C167.682 53.5063 167.549 54.5927 166.744 55.4603C165.95 56.316 164.874 56.5574 164.021 56.6507C163.138 56.7473 162.033 56.7255 160.766 56.6751C155.575 56.4687 145.729 55.687 118.072 55.0032C90.4182 54.3195 46.3586 53.7531 24.2656 53.47C20.7984 53.4256 17.8726 53.3883 15.4043 53.3567C15.4133 54.1119 14.9944 54.8396 14.2676 55.1858C13.2705 55.6606 12.0766 55.2374 11.6016 54.2405C11.5088 54.0458 11.3927 53.7791 11.3096 53.3743C11.3049 53.3516 11.3012 53.3282 11.2969 53.305C2.1452 53.1883 2.06339 53.1878 2.00098 53.1878C0.896548 53.1878 0.000228804 52.2922 0 51.1878C7.18782e-05 50.0833 0.896451 49.1878 2.00098 49.1878C2.08812 49.1878 2.19602 49.189 11.1299 49.303C11.129 48.5218 11.1313 47.5886 11.1406 46.47C11.1918 40.3614 11.3925 28.8066 11.4922 20.8401C11.5444 16.667 11.5683 13.4973 11.5801 10.806C10.5644 11.0351 9.55568 11.2639 8.53223 11.4944C7.4548 11.7371 6.38448 11.061 6.1416 9.98369C5.89894 8.90617 6.57584 7.83582 7.65332 7.59306C8.96631 7.29735 10.2633 7.00059 11.5898 6.70341C11.5905 5.8666 11.5918 5.05414 11.5918 4.2415C11.5918 3.13693 12.4872 2.2415 13.5918 2.2415C14.6964 2.24151 15.5918 3.13694 15.5918 4.2415C15.5918 4.77042 15.591 5.29943 15.5908 5.83525C18.7651 5.171 22.305 4.50108 26.7109 3.82841C35.0002 2.56291 46.0279 1.31732 55.1201 0.621384ZM88.3193 4.35966C71.1989 3.78267 64.3706 3.92494 55.4248 4.60966C46.4243 5.29859 35.4977 6.53337 27.3154 7.78252C22.6094 8.50098 18.9221 9.21328 15.582 9.92509C15.5717 12.8175 15.5495 16.2316 15.4912 20.8909C15.391 28.9 15.1917 40.3988 15.1406 46.5032C15.131 47.6521 15.1289 48.5883 15.1299 49.3538C17.6663 49.3862 20.6968 49.4246 24.3174 49.471C46.4017 49.754 90.4878 50.3197 118.171 51.0042C145.851 51.6886 155.865 52.4769 160.925 52.678C162.22 52.7295 163.041 52.7338 163.587 52.6741C163.626 52.6698 163.662 52.664 163.695 52.6595C163.696 52.6515 163.697 52.6433 163.697 52.6351C163.706 52.1366 163.633 51.4264 163.502 50.2737C163.001 45.854 161.976 37.4288 160.991 30.6692C160.006 23.9116 159.095 19.0903 158.542 15.8333C158.146 13.5 157.883 11.738 157.678 10.3811C157.534 9.42835 157.421 8.70825 157.315 8.1292C157.209 8.10713 157.082 8.08082 156.932 8.05498C155.341 7.78142 152.083 7.46772 145.384 7.04228C132.05 6.19555 105.464 4.93748 88.3193 4.35966Z" fill="white"/>
</svg>
