<svg width="98" height="163" viewBox="0 0 98 163" fill="none" xmlns="http://www.w3.org/2000/svg">
<circle cx="48.0989" cy="44.8075" r="30" stroke="white" stroke-width="4"/>
<path d="M48.5989 76.8075L48.5989 124.807" stroke="white" stroke-width="4"/>
<path d="M48.0989 122.807L25.8708 161.307" stroke="white" stroke-width="4"/>
<path d="M49.0989 122.807L71.3269 161.307" stroke="white" stroke-width="4"/>
<path d="M48.5989 76.3075C34.4322 78.4741 5.29886 74.5075 2.09886 41.3075C1.26553 32.6408 5.29886 12.6075 28.0989 1.80746" stroke="white" stroke-width="4"/>
<path d="M49.0989 76.3075C63.2656 78.4741 92.3989 74.5075 95.5989 41.3075C96.4322 32.6408 92.3989 12.6075 69.5989 1.80746" stroke="white" stroke-width="4"/>
<path d="M42.7713 44.1864C42.7685 44.3596 43.1208 45.1787 44.1246 46.254C44.7931 46.9701 45.8315 47.2165 46.8434 47.4475C47.8969 47.688 48.7312 47.2247 49.4216 46.873C50.6659 45.76 51.6842 44.4868 51.9689 44.0041C52.1019 43.7491 52.2119 43.4739 52.37 43.1072" stroke="white" stroke-width="2" stroke-linecap="round"/>
<path d="M37.3318 36.0823C37.3364 36.0823 37.3411 36.0823 37.4915 36.077C37.6418 36.0717 37.9377 36.0612 38.8476 35.945C39.7574 35.8289 41.2723 35.6075 42.8944 35.3559" stroke="white" stroke-width="2" stroke-linecap="round"/>
<path d="M50.7429 35.4389C50.7576 35.4389 51.5894 35.4409 53.0509 35.476C54.6255 35.6398 54.9866 35.6696 55.4149 35.713C55.6338 35.7277 55.8556 35.7277 56.0841 35.7277" stroke="white" stroke-width="2" stroke-linecap="round"/>
</svg>
