<svg width="116" height="14" viewBox="0 0 116 14" fill="none" xmlns="http://www.w3.org/2000/svg">
<path d="M2.00049 10.274C2.35461 10.0728 4.13798 9.12645 5.79597 8.41815C7.16451 7.83351 7.82523 6.68943 8.40856 6.24928C10.8246 4.42621 15.0737 10.3579 15.9967 10.6535C17.9913 11.2923 20.5368 7.41865 23.0383 5.58383C26.2201 3.24995 31.0067 11.0964 32.413 10.4493C36.372 8.62769 38.4802 4.78229 39.8615 4.16822C42.4819 3.0033 44.3121 9.2715 45.5665 10.4148C48.299 12.9052 55.171 7.57508 58.1658 6.83441C59.1856 6.58219 60.1318 8.96604 60.9189 9.67562C61.924 10.5816 64.8196 8.30389 68.4448 5.92188C70.2997 4.70306 73.4349 7.50995 76.7931 10.0932C77.9803 11.0064 78.4339 10.6603 79.3372 9.85323C81.713 7.73058 83.878 5.23652 85.2534 3.76594C87.3123 1.5645 91.3566 7.57544 92.8816 8.33649C93.3635 8.57702 93.982 8.88882 94.4966 8.85857C97.1054 8.70519 98.4162 5.01588 99.3334 4.14758C99.7605 3.74326 100.165 3.47296 100.951 3.94569C103.178 5.28524 104.904 7.49051 106.329 8.36439C106.931 8.73383 107.404 8.74588 107.948 8.52144C110.584 7.43454 111.408 4.84146 112.221 3.01106C112.426 2.54973 112.559 2.08157 112.742 2.01034C112.925 1.93912 113.128 2.26892 113.242 3.08412C113.356 3.89932 113.374 5.18993 113.393 6.51966" stroke="white" stroke-width="4" stroke-linecap="round"/>
</svg>
